<svg width="93" height="53" viewBox="0 0 93 53" fill="none" xmlns="http://www.w3.org/2000/svg">
<path d="M92.75 6.02778C92.75 7.52778 92.1667 8.86111 91 10.0278L50.5 50.5278C49.3333 51.6944 48 52.2778 46.5 52.2778C45 52.2778 43.5833 51.6944 42.25 50.5278L1.75 10.0278C0.583333 8.86111 0 7.44444 0 5.77778C0 4.11111 0.583333 2.77778 1.75 1.77778C2.91667 0.777778 4.25 0.194444 5.75 0.0277778C7.25 -0.138889 8.58333 0.444444 9.75 1.77778L46.25 38.2778L82.75 1.77778C83.9167 0.611111 85.3333 0.0277778 87 0.0277778C88.6667 0.0277778 90 0.611111 91 1.77778C92.1667 3.27778 92.75 4.69444 92.75 6.02778Z" fill="black"/>
</svg>
