<svg xmlns="http://www.w3.org/2000/svg" width="48" height="48" viewBox="0 0 48 48"><defs><style>.a{fill:#fff;}.b,.d{fill:none;}.b{stroke:#fe2b0d;stroke-width:2px;}.c{stroke:none;}</style></defs><g transform="translate(-0.499)"><path class="a" d="M1.864,18.81a.175.175,0,0,0-.16.159l-.37,3.418.37,3.34a.159.159,0,0,0,.317,0l.4-3.34L2,18.969a.155.155,0,0,0-.143-.159M.428,20.124a.163.163,0,0,0-.165.149L0,22.387l.262,2.075a.148.148,0,0,0,.143.149.2.2,0,0,0,.165-.165L.9,22.354.57,20.237a.135.135,0,0,0-.143-.143m2.9-1.95a.183.183,0,0,0-.19.165l-.333,4.067.357,3.9a.187.187,0,0,0,.189.19c.1,0,.167-.1.192-.19l.4-3.926-.4-4.043c-.025-.1-.1-.19-.192-.19m1.5-.141a.253.253,0,0,0-.238.214l-.306,4.189.333,4.037a.238.238,0,0,0,.474-.019L5.5,22.379l-.381-4.162A.213.213,0,0,0,4.9,18Zm1.833.571a.245.245,0,0,0-.252-.236.249.249,0,0,0-.26.236L5.828,22.4l.317,4.067a.251.251,0,0,0,.252.249.249.249,0,0,0,.235-.251l.36-4.067-.36-3.878Zm1.284-2.712a.294.294,0,0,0-.286.287L7.35,22.4l.3,4.067a.274.274,0,0,0,.286.26.31.31,0,0,0,.286-.286l.332-4.067-.332-6.3a.3.3,0,0,0-.286-.286m1.522-1.45a.336.336,0,0,0-.322.308l-.286,7.73.262,4.043a.319.319,0,0,0,.309.332.359.359,0,0,0,.333-.332l.306-4.043-.3-7.705a.359.359,0,0,0-.333-.333m1.569-.712a.358.358,0,0,0-.357.332l-.262,8.37.262,4a.383.383,0,0,0,.357.357.367.367,0,0,0,.357-.357l.309-4-.311-8.37a.366.366,0,0,0-.357-.357m1.975.071a.376.376,0,0,0-.381-.381.393.393,0,0,0-.381.381L11.964,22.3l.236,3.972a.416.416,0,0,0,.406.381.376.376,0,0,0,.381-.381l.26-3.972-.26-8.657Zm1.188-.213a.416.416,0,0,0-.4.4l-.238,8.445.238,3.924a.4.4,0,0,0,.4.4.422.422,0,0,0,.4-.428l.238-3.926-.262-8.421a.429.429,0,0,0-.43-.428m1.595.263a.452.452,0,0,0-.451.452l-.163,8.16.214,3.926a.441.441,0,0,0,.451.44.465.465,0,0,0,.451-.452l.192-3.876-.214-8.111a.466.466,0,0,0-.452-.452m1.879-1.5a.526.526,0,0,0-.524,0,.477.477,0,0,0-.236.4v.1l-.165,9.6.182,3.886v.013a.525.525,0,0,0,.117.286.519.519,0,0,0,.371.165.525.525,0,0,0,.332-.143.5.5,0,0,0,.144-.357l.024-.381.186-3.5L17.819,12.7a.456.456,0,0,0-.214-.379l0-.035Zm1.6-.868a.307.307,0,0,0-.238-.1.546.546,0,0,0-.332.1.5.5,0,0,0-.189.381v.046l-.217,10.487.121,1.928.1,1.88a.521.521,0,0,0,.52.5.527.527,0,0,0,.524-.522l.238-3.83L19.483,11.75a.528.528,0,0,0-.262-.44M33.4,17.3a4.648,4.648,0,0,0-1.807.368,8.257,8.257,0,0,0-8.232-7.515,8.423,8.423,0,0,0-3,.57c-.357.143-.428.286-.452.57V26.16a.588.588,0,0,0,.524.547H33.419a4.616,4.616,0,0,0,4.662-4.636,4.673,4.673,0,0,0-4.662-4.684" transform="translate(4.999 5.443)"/><g class="b" transform="translate(0.499 0)"><circle class="c" cx="24" cy="24" r="24"/><circle class="d" cx="24" cy="24" r="23"/></g></g></svg>