<svg width="24" height="25" viewBox="0 0 18 19" fill="none" xmlns="http://www.w3.org/2000/svg">
<path d="M1 14V16C1 16.5304 1.21071 17.0391 1.58579 17.4142C1.96086 17.7893 2.46957 18 3 18H15C15.5304 18 16.0391 17.7893 16.4142 17.4142C16.7893 17.0391 17 16.5304 17 16V14" fill="#FE2B0D"/>
<path d="M1 14V16C1 16.5304 1.21071 17.0391 1.58579 17.4142C1.96086 17.7893 2.46957 18 3 18H15C15.5304 18 16.0391 17.7893 16.4142 17.4142C16.7893 17.0391 17 16.5304 17 16V14" stroke="#FE2B0D" stroke-width="2" stroke-linecap="round" stroke-linejoin="round"/>
<path d="M4 8L9 13L14 8" fill="#FE2B0D"/>
<path d="M4 8L9 13L14 8" stroke="#FE2B0D" stroke-width="2" stroke-linecap="round" stroke-linejoin="round"/>
<path d="M9 1V13Z" fill="#FE2B0D"/>
<path d="M9 1V13" stroke="#FE2B0D" stroke-width="2" stroke-linecap="round" stroke-linejoin="round"/>
</svg>
