<svg width="1448" height="1448" viewBox="0 0 1448 1448" fill="none" xmlns="http://www.w3.org/2000/svg">
<path d="M1026.85 737.195L1027.55 613.451C988.426 591.295 928.204 575.856 846.886 567.136C765.569 558.415 684.252 558.415 602.934 567.136C521.617 575.856 461.16 591.531 421.562 614.158V737.195C421.562 751.337 412.016 766.775 392.924 783.51C373.832 800.245 352.972 815.448 330.345 829.119C307.717 842.789 287.683 852.689 270.241 858.817C231.114 872.488 196.112 876.141 165.235 869.777C134.358 863.413 119.156 849.625 119.627 828.411V677.091C119.156 636.078 135.065 596.834 167.357 559.357C199.648 521.881 242.781 489.589 296.757 462.484C350.733 435.378 414.962 413.811 489.444 397.783C563.926 381.756 642.179 373.742 724.203 373.742C806.228 373.742 884.717 381.756 959.67 397.783C1034.62 413.811 1099.09 435.378 1153.06 462.484C1207.04 489.589 1250.06 521.763 1282.11 559.004C1314.17 596.245 1329.96 635.371 1329.49 676.384L1329.49 827.704C1329.49 847.503 1315.46 859.406 1287.41 863.413C1259.37 867.42 1223.18 865.652 1178.87 858.11C1157.19 854.339 1127.25 838.547 1089.07 810.734C1050.89 782.921 1030.14 758.408 1026.85 737.195Z" fill="#FE2B0D"/>
</svg>
