<svg xmlns="http://www.w3.org/2000/svg" width="48" height="48" viewBox="0 0 48 48"><defs><style>.a{fill:#fff;}.b,.d{fill:none;}.b{stroke:#fe2b0d;stroke-width:2px;}.c{stroke:none;}</style></defs><g transform="translate(-0.499)"><path class="a" d="M11.956,8.063a6.131,6.131,0,1,0,6.131,6.131A6.121,6.121,0,0,0,11.956,8.063Zm0,10.117a3.986,3.986,0,1,1,3.986-3.986,3.993,3.993,0,0,1-3.986,3.986ZM19.768,7.812a1.43,1.43,0,1,1-1.43-1.43A1.427,1.427,0,0,1,19.768,7.812Zm4.061,1.451A7.077,7.077,0,0,0,21.9,4.253a7.123,7.123,0,0,0-5.01-1.932c-1.974-.112-7.892-.112-9.866,0A7.113,7.113,0,0,0,2.01,4.248,7.1,7.1,0,0,0,.079,9.258c-.112,1.974-.112,7.892,0,9.866a7.077,7.077,0,0,0,1.932,5.01,7.132,7.132,0,0,0,5.01,1.932c1.974.112,7.892.112,9.866,0a7.077,7.077,0,0,0,5.01-1.932,7.123,7.123,0,0,0,1.932-5.01c.112-1.974.112-7.886,0-9.861ZM21.278,21.243a4.035,4.035,0,0,1-2.273,2.273c-1.574.624-5.309.48-7.049.48s-5.48.139-7.049-.48a4.035,4.035,0,0,1-2.273-2.273c-.624-1.574-.48-5.309-.48-7.049s-.139-5.48.48-7.049A4.035,4.035,0,0,1,4.908,4.872c1.574-.624,5.309-.48,7.049-.48s5.48-.139,7.049.48a4.035,4.035,0,0,1,2.273,2.273c.624,1.574.48,5.309.48,7.049S21.9,19.674,21.278,21.243Z" transform="translate(11.978 9.806)"/><g class="b" transform="translate(0.499 0)"><circle class="c" cx="24" cy="24" r="24"/><circle class="d" cx="24" cy="24" r="23"/></g></g></svg>