<svg xmlns="http://www.w3.org/2000/svg" width="48" height="48" viewBox="0 0 48 48"><defs><style>.a{fill:#fff;}.b,.d{fill:none;}.b{stroke:#fe2b0d;stroke-width:2px;}.c{stroke:none;}</style></defs><g transform="translate(0.099)"><path class="a" d="M74.222,120.227A16.017,16.017,0,0,0,98.862,106a11.405,11.405,0,0,0,2.81-2.916,11.221,11.221,0,0,1-3.234.886,5.642,5.642,0,0,0,2.475-3.115,11.3,11.3,0,0,1-3.576,1.368,5.635,5.635,0,0,0-9.6,5.137,15.984,15.984,0,0,1-11.608-5.885A5.639,5.639,0,0,0,77.877,109a5.626,5.626,0,0,1-2.552-.7,5.638,5.638,0,0,0,4.517,5.593,5.64,5.64,0,0,1-2.542.1,5.633,5.633,0,0,0,5.26,3.911A11.317,11.317,0,0,1,74.222,120.227Z" transform="translate(-63.987 -87.771)"/><g class="b" transform="translate(-0.099 0)"><circle class="c" cx="24" cy="24" r="24"/><circle class="d" cx="24" cy="24" r="23"/></g></g></svg>