<svg xmlns="http://www.w3.org/2000/svg" width="18.868" height="18.101" viewBox="0 0 18.868 18.101"><defs><style>.a{fill:none;stroke:#fff;stroke-linecap:round;stroke-linejoin:round;stroke-width:2px;}</style></defs><g transform="translate(1 1)"><path class="a" d="M13.533,30.767A.767.767,0,1,1,12.767,30,.767.767,0,0,1,13.533,30.767Z" transform="translate(-6.633 -15.432)"/><path class="a" d="M30.033,30.767A.767.767,0,1,1,29.267,30,.767.767,0,0,1,30.033,30.767Z" transform="translate(-14.699 -15.432)"/><path class="a" d="M1.5,1.5H4.567L6.622,11.766A1.533,1.533,0,0,0,8.155,13h7.452a1.533,1.533,0,0,0,1.533-1.234l1.227-6.433H5.334" transform="translate(-1.5 -1.5)"/></g></svg>