<svg xmlns="http://www.w3.org/2000/svg" width="74" height="74" viewBox="0 0 74 74"><defs><style>.a{fill:#0d0d0d;}.b{fill:#cbcbcb;fill-rule:evenodd;}</style></defs><g transform="translate(-1250 -157)"><circle class="a" cx="37" cy="37" r="37" transform="translate(1250 157)"/><g transform="translate(1267.749 177.562)"><path class="b" d="M0,4.813A4.813,4.813,0,0,1,4.813,0H33.689A4.813,4.813,0,0,1,38.5,4.813V24.064a4.813,4.813,0,0,1-4.813,4.813H27.673a2.406,2.406,0,0,0-1.925.963l-4.572,6.1a2.406,2.406,0,0,1-3.85,0l-4.572-6.1a2.406,2.406,0,0,0-1.925-.963H4.813A4.813,4.813,0,0,1,0,24.064ZM8.422,7.219a1.2,1.2,0,0,0,0,2.406H30.08a1.2,1.2,0,0,0,0-2.406Zm0,6.016a1.2,1.2,0,1,0,0,2.406H30.08a1.2,1.2,0,0,0,0-2.406Zm0,6.016a1.2,1.2,0,1,0,0,2.406H20.454a1.2,1.2,0,0,0,0-2.406Z" transform="translate(0 0)"/></g></g></svg>