<svg xmlns="http://www.w3.org/2000/svg" width="126.427" height="133.838" viewBox="0 0 126.427 133.838"><defs><style>.a{fill:#0196da;}.b{fill:#002c86;}</style></defs><g transform="translate(0)"><path class="a" d="M169.436,92.331a26.876,26.876,0,0,0-4.353-4.253,49.012,49.012,0,0,1-1.127,12.872,51.9,51.9,0,0,1-52.042,42.043H93.369l-6,28.123A12.1,12.1,0,0,1,75.6,180.639h-8.36l-1.505,6.91a6.019,6.019,0,0,0,5.881,7.3H92.047a6.018,6.018,0,0,0,5.886-4.762l7.019-32.886h23.414a45.886,45.886,0,0,0,46.156-37.282C176.912,108.739,175.2,99.457,169.436,92.331Z" transform="translate(-49.14 -61.01)"/><path class="b" d="M44.4,108.849l7.019-32.885H74.83a46.994,46.994,0,0,0,29.927-10.189,46.821,46.821,0,0,0,16.229-27.093c2.389-11.18.678-20.461-5.087-27.588C110.366,4.251,100.906,0,91.214,0H40.2a6.019,6.019,0,0,0-5.881,4.737L12.195,106.313a6.019,6.019,0,0,0,5.881,7.3H38.512A6.019,6.019,0,0,0,44.4,108.849ZM63.126,23.138H79.177a11.481,11.481,0,0,1,9.264,4.342A12.75,12.75,0,0,1,90.24,38.6c-.014.053-.027.105-.04.159C88.18,47.282,79.784,54.215,71.485,54.215H56.1Z" transform="translate(-12.057)"/></g></svg>