<svg xmlns="http://www.w3.org/2000/svg" width="54.212" height="57.389" viewBox="0 0 54.212 57.389"><defs><style>.a{opacity:0.6;}.b{fill:#0196da;}.c{fill:#002c86;}</style></defs><g class="a" transform="translate(0 0)"><g transform="translate(0 0)"><path class="b" d="M110.121,89.9a11.524,11.524,0,0,0-1.867-1.824,21.018,21.018,0,0,1-.483,5.519,22.255,22.255,0,0,1-22.315,18.028H77.5l-2.574,12.059a5.187,5.187,0,0,1-5.047,4.084H66.3l-.645,2.963a2.581,2.581,0,0,0,2.522,3.13h8.763a2.58,2.58,0,0,0,2.524-2.042l3.01-14.1H92.51A19.676,19.676,0,0,0,112.3,101.731C113.326,96.937,112.592,92.957,110.121,89.9Z" transform="translate(-58.538 -76.471)"/><path class="c" d="M25.924,46.674l3.01-14.1h10.04A20.151,20.151,0,0,0,51.807,28.2a20.077,20.077,0,0,0,6.959-11.618c1.024-4.794.291-8.774-2.181-11.829A13.8,13.8,0,0,0,46,0H24.125A2.581,2.581,0,0,0,21.6,2.031L12.116,45.587a2.581,2.581,0,0,0,2.522,3.13H23.4A2.581,2.581,0,0,0,25.924,46.674ZM33.955,9.922h6.883a4.923,4.923,0,0,1,3.972,1.862,5.467,5.467,0,0,1,.771,4.769c-.006.023-.012.045-.017.068a8.814,8.814,0,0,1-8.025,6.627h-6.6Z" transform="translate(-12.057)"/></g></g></svg>