<svg xmlns="http://www.w3.org/2000/svg" width="150.957" height="132.087" viewBox="0 0 150.957 132.087"><defs><style>.a{fill:#cbcbcb;opacity:0.3;}</style></defs><path class="a" d="M143.522,4H11.435A9.435,9.435,0,0,0,2,13.435V126.652a9.435,9.435,0,0,0,9.435,9.435H143.522a9.435,9.435,0,0,0,9.435-9.435V13.435A9.435,9.435,0,0,0,143.522,4ZM34.644,22.87A14.152,14.152,0,1,1,20.492,37.022,14.152,14.152,0,0,1,34.644,22.87ZM20.87,112.5V93.159l28.3-28.682a4.717,4.717,0,0,1,6.652,0L68.044,76.412,31.814,112.5Zm113.217,0H45.164L74.554,83.111l25.474-25.474a4.717,4.717,0,0,1,6.652,0l27.408,27.408Z" transform="translate(-2 -4)"/></svg>