<svg xmlns="http://www.w3.org/2000/svg" width="38.354" height="38.368" viewBox="0 0 38.354 38.368"><defs><style>.a{fill:#fe2b0d;}</style></defs><path class="a" d="M37.352,37.352H6.566V6.566H27.09V4H6.566A2.566,2.566,0,0,0,4,6.566V37.352a2.566,2.566,0,0,0,2.566,2.566H37.352a2.566,2.566,0,0,0,2.566-2.566V16.828H37.352Z" transform="translate(-4 -1.549)"/><path class="a" d="M38.6,11.377,29.624,2.4a1.283,1.283,0,0,0-1.809,1.809l1.77,1.77-5.131,5.131c-2.566-1.116-5.58.18-7.594,2.155l-.924.911,4.541,4.541L15.77,23.422l1.809,1.809,4.708-4.708L26.8,25.064l.911-.924c1.975-2.014,3.271-5.016,2.155-7.594L35,11.416l1.77,1.77a1.283,1.283,0,1,0,1.809-1.809Z" transform="translate(-0.672 -2.09)"/></svg>