<svg xmlns="http://www.w3.org/2000/svg" width="51" height="24" viewBox="0 0 51 24"><defs><style>.a{fill:#0d0d0d;}.b{fill:#fff;}</style></defs><g transform="translate(-515 -775)"><rect class="a" width="51" height="24" rx="2" transform="translate(515 775)"/><g transform="translate(533 780)"><path class="b" d="M13.672,15.809a.893.893,0,1,0,1.786,0V9.418l2.9,2.9,1.262-1.262L14.565,6,9.514,11.051l1.262,1.262,2.9-2.894v6.39Z" transform="translate(-7.422 -6)"/><path class="b" d="M6,21H7.786v3.571H18.5V21h1.786v3.571A1.786,1.786,0,0,1,18.5,26.357H7.786A1.786,1.786,0,0,1,6,24.571Z" transform="translate(-6 -12.072)"/></g></g></svg>