<svg width="568" height="568" viewBox="0 0 568 568" fill="none" xmlns="http://www.w3.org/2000/svg">
<path d="M284 532.5C218.094 532.5 154.887 506.319 108.284 459.716C61.6812 413.113 35.5 349.906 35.5 284C35.5 218.094 61.6812 154.887 108.284 108.284C154.887 61.6812 218.094 35.5 284 35.5C349.906 35.5 413.113 61.6812 459.716 108.284C506.319 154.887 532.5 218.094 532.5 284C532.5 349.906 506.319 413.113 459.716 459.716C413.113 506.319 349.906 532.5 284 532.5ZM284 568C359.321 568 431.558 538.079 484.818 484.818C538.079 431.558 568 359.321 568 284C568 208.679 538.079 136.442 484.818 83.1817C431.558 29.9213 359.321 0 284 0C208.679 0 136.442 29.9213 83.1817 83.1817C29.9213 136.442 0 208.679 0 284C0 359.321 29.9213 431.558 83.1817 484.818C136.442 538.079 208.679 568 284 568V568Z" fill="#FE2B0D"/>
<path d="M390.5 284C390.5 312.246 379.28 339.334 359.307 359.307C339.334 379.28 312.246 390.5 284 390.5C255.754 390.5 228.666 379.28 208.693 359.307C188.721 339.334 177.5 312.246 177.5 284C177.5 255.754 188.721 228.666 208.693 208.693C228.666 188.721 255.754 177.5 284 177.5C312.246 177.5 339.334 188.721 359.307 208.693C379.28 228.666 390.5 255.754 390.5 284V284Z" fill="#FE2B0D"/>
</svg>
