<svg width="53" height="94" viewBox="0 0 53 94" fill="none" xmlns="http://www.w3.org/2000/svg">
<path d="M6.2641 0.763672C7.7641 0.763672 9.09744 1.347 10.2641 2.51367L50.7641 43.0137C51.9308 44.1803 52.5141 45.5137 52.5141 47.0137C52.5141 48.5137 51.9308 49.9303 50.7641 51.2637L10.2641 91.7637C9.09744 92.9303 7.68077 93.5137 6.01411 93.5137C4.34744 93.5137 3.01411 92.9303 2.01411 91.7637C1.01411 90.597 0.430772 89.2637 0.264106 87.7637C0.0974389 86.2637 0.680772 84.9303 2.01411 83.7637L38.5141 47.2637L2.0141 10.7637C0.847436 9.59701 0.264102 8.18034 0.264102 6.51367C0.264102 4.84701 0.847435 3.51367 2.0141 2.51367C3.5141 1.34701 4.93077 0.763672 6.2641 0.763672Z" fill="black"/>
</svg>
