<svg xmlns="http://www.w3.org/2000/svg" width="107" height="107" viewBox="0 0 107 107"><defs><style>.a{fill:#29a9e1;}.b{fill:#fff;}</style></defs><g transform="translate(-883 -825)"><circle class="a" cx="53.5" cy="53.5" r="53.5" transform="translate(883 825)"/><path class="b" d="M74.222,130.683a24.365,24.365,0,0,0,13.2,3.868c15.984,0,25.014-13.5,24.47-25.61a17.435,17.435,0,0,0,4.3-4.457,17.154,17.154,0,0,1-4.943,1.355,8.624,8.624,0,0,0,3.784-4.762,17.268,17.268,0,0,1-5.466,2.091,8.615,8.615,0,0,0-14.671,7.852,24.434,24.434,0,0,1-17.745-9,8.62,8.62,0,0,0,2.665,11.5,8.6,8.6,0,0,1-3.9-1.077,8.619,8.619,0,0,0,6.906,8.551,8.621,8.621,0,0,1-3.886.147,8.612,8.612,0,0,0,8.041,5.979A17.3,17.3,0,0,1,74.222,130.683Z" transform="translate(843.248 760.734)"/></g></svg>