<svg width="16" height="12" viewBox="0 0 16 12" fill="none" xmlns="http://www.w3.org/2000/svg">
<path d="M16 2.17C16.0015 1.97333 15.948 1.78015 15.8455 1.61229C15.743 1.44442 15.5956 1.30855 15.42 1.22C15.2535 1.13061 15.0651 1.09021 14.8767 1.10348C14.6882 1.11675 14.5073 1.18316 14.355 1.295L12 2.8V1C12 0.734784 11.8946 0.48043 11.7071 0.292893C11.5196 0.105357 11.2652 0 11 0H2C1.46957 0 0.960859 0.210714 0.585786 0.585786C0.210714 0.960859 0 1.46957 0 2V10C0 10.5304 0.210714 11.0391 0.585786 11.4142C0.960859 11.7893 1.46957 12 2 12H11C11.2652 12 11.5196 11.8946 11.7071 11.7071C11.8946 11.5196 12 11.2652 12 11V9.2L14.32 10.7C14.4752 10.8188 14.6609 10.8913 14.8555 10.909C15.0502 10.9267 15.2459 10.8889 15.42 10.8C15.5987 10.71 15.7481 10.571 15.8508 10.3992C15.9535 10.2275 16.0053 10.03 16 9.83V2.17ZM14.965 9.885C14.935 9.885 14.91 9.885 14.87 9.855L11 7.385V11H2C1.73478 11 1.48043 10.8946 1.29289 10.7071C1.10536 10.5196 1 10.2652 1 10V2C1 1.73478 1.10536 1.48043 1.29289 1.29289C1.48043 1.10536 1.73478 1 2 1H11V4.615L14.9 2.115C14.9094 2.10809 14.9208 2.10437 14.9325 2.10437C14.9442 2.10437 14.9556 2.10809 14.965 2.115C14.9759 2.11924 14.9852 2.12686 14.9915 2.13676C14.9978 2.14665 15.0008 2.1583 15 2.17V9.83C15.0008 9.8417 14.9978 9.85335 14.9915 9.86324C14.9852 9.87314 14.9759 9.88076 14.965 9.885Z" fill="#707070"/>
</svg>
